<svg xmlns="http://www.w3.org/2000/svg" width="354" height="323"><path fill="#F3BEEA" d="M274.125 49.625C282.812 58.63 288.798 69.255 293 81l1.066 2.906c5.49 18.194 1.78 39.25-6.066 56.094-2.114 3.837-4.474 7.423-7 11l-2.133 3.035C262.442 176.671 237.71 192.245 210 197c-13.72 1.857-27.887 3.346-41.563.625l-2.204-.411c-3.984-.75-7.953-1.568-11.92-2.401-3.489-.722-6.736-1.001-10.313-.813.767 4.464 2.843 6.232 6.234 9.063 18.956 13.28 41.928 16.686 64.516 12.937 12.768-2.977 23.326-9.569 33.398-17.727 6.83-5.444 12.878-9.235 21.852-8.273 13.294 2.78 25.675 7.411 37 15l2.105 1.328c3.784 2.715 5.516 5.29 6.77 9.797 1.041 8.445-4.14 14.155-8.895 20.621-22.697 29.014-55.453 48.425-92.061 53.375-3.635.414-7.266.685-10.919.879l-2.086.117c-12.153.576-23.97-.957-35.914-3.117l-2.168-.39C143.059 283.663 121.888 272.833 106 259l-2.45-2.082C77.49 234.211 61.34 203.546 58 169c.035-2.5.076-5 .125-7.5-.246-4.368-.63-5.971-3.652-9.2-2.764-2.213-5.714-4.125-8.68-6.054-2.945-2.047-5.508-4.47-8.105-6.934-3.267-3.067-6.556-6.069-10-8.937C22.588 125.958 17.523 120.339 15 114c-.477-11.884 5.674-22.706 13.105-31.488C34.744 75.522 42.41 69.88 52 68l2.273-.46c4.434.749 6.592 3.987 9.54 7.21 6.902 7.229 14.25 13.146 22.374 18.932 2.608 1.896 5.103 3.933 7.626 5.943 14.759 11.05 32.244 17.75 49.562 23.625l2.198.747c20.767 6.857 45.348 10.038 65.818.94 5.93-3.26 11.056-8.628 13.37-15.05.904-5.004-.122-8.648-2.761-12.887-7.985-7.38-19.357-7.437-29.645-7.246-8.118.595-14.097 3.453-20.902 7.754-10.823 6.583-20.394 7.445-32.77 4.777-13.939-3.908-26.273-11.604-34.308-23.91C102.75 74.387 101.982 71.187 103 67c9.203-18.83 32.363-31.404 51.313-38.25C163.05 25.76 171.907 23.593 181 22l2.338-.424c32.221-5.508 67.114 5.794 90.787 28.049Z"/><path fill="#FCFEFB" d="M274.125 49.625C282.812 58.63 288.798 69.255 293 81l1.066 2.906c5.49 18.194 1.78 39.25-6.066 56.094-2.114 3.837-4.474 7.423-7 11l-2.133 3.035C262.442 176.671 237.71 192.245 210 197c-13.72 1.857-27.887 3.346-41.563.625l-2.204-.411c-3.984-.75-7.953-1.568-11.92-2.401-3.489-.722-6.736-1.001-10.313-.813.767 4.464 2.843 6.232 6.234 9.063 18.956 13.28 41.928 16.686 64.516 12.937 12.768-2.977 23.326-9.569 33.398-17.727 6.83-5.444 12.878-9.235 21.852-8.273 13.294 2.78 25.675 7.411 37 15l2.105 1.328c3.784 2.715 5.516 5.29 6.77 9.797 1.041 8.445-4.14 14.155-8.895 20.621-22.697 29.014-55.453 48.425-92.061 53.375-3.635.414-7.266.685-10.919.879l-2.086.117c-12.153.576-23.97-.957-35.914-3.117l-2.168-.39C143.059 283.663 121.888 272.833 106 259l-2.45-2.082C77.49 234.211 61.34 203.546 58 169c.035-2.5.076-5 .125-7.5-.246-4.368-.63-5.971-3.652-9.2-2.764-2.213-5.714-4.125-8.68-6.054-2.945-2.047-5.508-4.47-8.105-6.934-3.267-3.067-6.556-6.069-10-8.937C22.588 125.958 17.523 120.339 15 114c-.477-11.884 5.674-22.706 13.105-31.488C34.744 75.522 42.41 69.88 52 68l2.273-.46c4.434.749 6.592 3.987 9.54 7.21 6.902 7.229 14.25 13.146 22.374 18.932 2.608 1.896 5.103 3.933 7.626 5.943 14.759 11.05 32.244 17.75 49.562 23.625l2.198.747c20.767 6.857 45.348 10.038 65.818.94 5.93-3.26 11.056-8.628 13.37-15.05.904-5.004-.122-8.648-2.761-12.887-7.985-7.38-19.357-7.437-29.645-7.246-8.118.595-14.097 3.453-20.902 7.754-10.823 6.583-20.394 7.445-32.77 4.777-13.939-3.908-26.273-11.604-34.308-23.91C102.75 74.387 101.982 71.187 103 67c9.203-18.83 32.363-31.404 51.313-38.25C163.05 25.76 171.907 23.593 181 22l2.338-.424c32.221-5.508 67.114 5.794 90.787 28.049ZM125.187 65.813l-1.583 1.381C121.98 68.647 121.98 68.647 120 71c-.458 4.061-.458 4.061 2.25 6.375 7.147 5.457 15.777 9.61 24.75 10.625l2.719.32c6.358.402 9.537-.597 14.332-4.73 12.105-9.874 31.348-10.585 46.137-9.317 6.14.83 10.828 2.382 16.07 5.704C227.95 81.169 227.95 81.169 230 81v2l2.75 2.188c5.256 4.224 7.391 9.144 8.25 15.812.843 13.363.843 13.363-3 19l-1.29 2.14c-7.95 12.84-19.198 17.16-33.398 20.547-16.432 3.315-34.053.801-50.015-4.007-2.235-.662-4.451-1.156-6.734-1.618-20.896-4.61-41.306-14.755-58.81-26.854a592.443 592.443 0 0 0-3.748-2.561c-8.8-5.971-16.954-12.04-24.49-19.565C56.826 85.855 55.469 85.111 52 85c-7.953 2.531-12.242 8.24-16.254 15.164-2.727 5.379-4.62 10.91-2.746 16.836 5.905 7.982 14.715 14.614 23 20h2v2c2.34 1.755 2.34 1.755 5.25 3.5l2.953 1.844c2.613 1.663 2.613 1.663 4.924 2.432C73 148 73 148 73.606 150.332l.152 2.91.207 3.235.16 3.398c1.858 33.208 14.39 61.697 39.354 84.268 4.582 4.032 9.406 7.54 14.521 10.857l1.871 1.29c9.097 6.064 19.311 10.4 29.754 13.522l1.949.59c11.068 3.125 22.219 3.964 33.676 3.91l3.857-.017c9.605-.123 18.613-.807 27.893-3.295l2.106-.538c16.887-4.46 34.926-13.617 47.894-25.462v-2l1.77-.793c8.619-4.664 13.987-14.245 19.23-22.207-4.81-5.173-9.535-7.414-16-10l-2.363-.945c-2.196-.804-4.377-1.458-6.637-2.055l-2.465-.719c-2.773-.58-4.741-.794-7.535-.281-2.603 1.943-4.6 4.112-6.766 6.531-13.296 14.691-35.21 19.995-54.164 21.739-23.478.963-45.851-9.067-63.097-24.454-4.201-3.893-7.701-8.119-10.973-12.816l-2.262-3.164c-4.497-6.575-7.05-11.768-5.738-19.836 8.453-2.818 13.983-.351 21.613 3.406 22.709 10.687 51.562 10.348 74.934 1.938 14.418-5.61 27.386-12.408 38.453-23.344l2.332-2.148c14.212-13.413 22.38-30.827 23.043-50.415C279.879 88.948 275.038 77.112 266 66l-1.328-1.77c-11.689-14.879-32.883-23.674-51.297-25.918-33.022-2.507-63.146 5.29-88.188 27.5Z"/></svg>
